<?xml version="1.0" standalone="no"?>
<!DOCTYPE svg PUBLIC "-//W3C//DTD SVG 20010904//EN"
 "http://www.w3.org/TR/2001/REC-SVG-20010904/DTD/svg10.dtd">
<svg version="1.0" xmlns="http://www.w3.org/2000/svg"
 width="460.000000pt" height="448.000000pt" viewBox="0 0 460.000000 448.000000"
 preserveAspectRatio="xMidYMid meet">

<g transform="translate(0.000000,448.000000) scale(0.100000,-0.100000)"
fill="#000000" stroke="none">
<path d="M4580 2240 c0 -1487 3 -2240 10 -2240 7 0 10 753 10 2240 0 1487 -3
2240 -10 2240 -7 0 -10 -753 -10 -2240z"/>
<path d="M1105 4441 c-75 -35 -103 -88 -85 -165 11 -49 47 -86 120 -125 72
-39 85 -54 85 -103 0 -86 -98 -106 -162 -33 -30 35 -32 36 -42 16 -29 -53 -1
-84 90 -103 70 -14 128 1 177 47 36 32 37 36 37 104 0 66 -2 72 -34 105 -19
19 -57 46 -85 59 -66 32 -90 59 -90 104 0 68 63 83 134 32 46 -34 63 -28 58
21 -2 19 -12 28 -38 36 -72 23 -123 25 -165 5z"/>
<path d="M2606 4446 c-22 -8 -51 -26 -65 -41 -23 -22 -26 -34 -26 -89 0 -81
17 -105 109 -158 82 -46 95 -61 96 -110 0 -28 -6 -41 -26 -57 -46 -36 -96 -25
-146 33 l-26 31 -11 -28 c-22 -57 -14 -67 72 -92 63 -18 108 -15 166 13 47 22
71 66 71 130 0 85 -27 120 -136 175 -59 30 -88 68 -80 102 15 61 69 71 137 26
24 -16 47 -27 51 -25 4 3 8 19 8 35 0 24 -6 33 -32 44 -54 22 -119 26 -162 11z"/>
<path d="M4205 4445 c-45 -16 -91 -62 -101 -100 -18 -71 35 -149 133 -196 53
-26 83 -62 83 -101 0 -38 -40 -78 -77 -78 -34 0 -88 31 -103 60 -16 30 -42 7
-38 -34 4 -42 59 -69 142 -70 113 -2 176 54 176 155 0 81 -32 120 -137 169
-52 25 -87 72 -79 105 16 62 70 71 136 24 47 -34 64 -29 58 17 -2 23 -10 31
-38 40 -65 21 -114 24 -155 9z"/>
<path d="M298 4443 c-12 -3 -18 -14 -18 -32 0 -15 -8 -54 -19 -87 -10 -32 -28
-93 -40 -134 -24 -82 -64 -205 -75 -232 -5 -11 -1 -18 13 -23 31 -9 61 11 61
43 0 27 18 86 33 110 5 7 32 12 72 12 65 0 65 0 79 -35 9 -20 18 -52 22 -73 4
-20 10 -42 15 -48 11 -14 107 -16 115 -3 3 6 -3 33 -14 62 -12 29 -35 99 -52
157 -62 203 -82 260 -96 275 -15 14 -59 18 -96 8z m45 -140 c3 -16 11 -46 17
-68 7 -22 13 -51 13 -65 2 -23 -2 -25 -42 -28 -24 -2 -48 1 -53 6 -8 8 22 147
37 172 11 18 23 10 28 -17z"/>
<path d="M659 4442 l-46 -3 5 -197 5 -197 29 -42 c37 -54 79 -77 143 -77 61 0
105 22 141 70 28 36 28 38 35 238 3 110 6 202 5 203 0 1 -26 3 -56 4 l-55 3 0
-209 c0 -188 -2 -213 -19 -237 -28 -42 -79 -39 -107 5 -19 30 -20 45 -17 234
2 129 -1 204 -7 205 -5 2 -31 2 -56 0z"/>
<path d="M2900 4444 l-25 -5 2 -245 c1 -135 5 -249 8 -254 10 -15 102 -12 108
3 3 8 1 36 -5 63 -5 28 -6 123 -2 227 l7 177 26 0 c15 0 34 -6 43 -12 25 -20
58 -80 58 -107 0 -43 -41 -113 -72 -125 -46 -17 -32 -41 24 -39 52 1 92 22
126 64 31 38 34 132 6 180 -32 55 -75 72 -184 75 -52 1 -106 0 -120 -2z"/>
<path d="M3308 4442 l-46 -3 4 -122 c9 -269 10 -275 39 -317 49 -71 133 -94
213 -60 86 37 96 61 104 270 4 96 8 186 10 200 3 24 1 25 -56 25 l-58 0 1
-200 c1 -184 0 -203 -19 -232 -23 -39 -68 -45 -99 -14 -25 25 -36 169 -27 332
7 131 10 126 -66 121z"/>
<path d="M3685 4443 c-6 -5 -10 -102 -10 -253 0 -152 4 -248 10 -252 12 -9 67
-10 87 -3 11 4 13 48 10 234 -4 218 -3 230 15 239 26 14 74 -10 96 -47 37 -63
13 -142 -54 -176 -20 -11 -27 -20 -23 -33 15 -47 73 -147 107 -184 35 -38 40
-40 78 -35 64 8 67 20 20 73 -22 26 -54 68 -70 94 l-29 47 48 45 c51 48 61 76
49 136 -18 89 -65 115 -214 120 -60 1 -114 -1 -120 -5z"/>
<path d="M1371 4414 c-17 -38 -6 -44 49 -26 27 9 53 12 57 8 4 -4 7 -109 8
-234 l0 -227 55 0 55 0 -3 205 c-2 113 -1 217 3 233 8 31 26 34 78 12 41 -17
52 -8 36 29 l-12 26 -157 0 -157 0 -12 -26z"/>
<path d="M1766 4188 l2 -253 56 -3 56 -3 0 256 0 255 -57 0 -58 0 1 -252z"/>
<path d="M1920 4438 c0 -2 -1 -115 -1 -253 l-1 -250 28 0 29 0 0 142 c0 123 6
168 18 152 2 -2 45 -66 96 -142 91 -135 116 -161 148 -155 14 3 15 34 15 253
l0 250 -30 3 -29 3 5 -139 c3 -93 1 -141 -6 -146 -6 -3 -27 18 -49 49 -154
226 -158 230 -191 233 -18 2 -32 2 -32 0z"/>
<path d="M2288 3498 c-35 -111 -60 -173 -74 -185 -11 -8 -52 -10 -135 -6 -143
7 -151 -2 -59 -66 33 -23 60 -48 60 -56 0 -18 -154 -90 -260 -121 -63 -19
-111 -26 -185 -27 -88 -1 -111 3 -191 30 -49 17 -115 45 -145 62 -68 38 -91
39 -110 5 -22 -42 -179 -185 -294 -269 -122 -89 -120 -82 -45 -186 26 -36 56
-92 68 -125 11 -32 32 -93 47 -134 44 -120 67 -377 46 -504 -6 -39 -16 -99
-21 -133 -26 -170 -32 -202 -40 -253 -29 -172 -34 -250 -22 -367 19 -185 52
-280 149 -427 77 -119 133 -168 293 -253 81 -43 96 -48 270 -89 328 -76 475
-157 593 -325 43 -62 52 -69 81 -69 30 0 40 9 92 77 65 84 164 164 280 225 65
34 130 56 329 108 102 26 146 44 259 102 178 93 319 259 356 420 7 29 16 66
21 82 21 67 5 421 -30 686 -48 358 -34 572 50 765 4 11 19 46 33 77 13 31 43
88 65 126 23 39 41 82 41 96 0 32 -17 49 -110 111 -41 27 -119 93 -172 147
-106 107 -120 113 -186 79 -20 -11 -73 -30 -117 -43 -68 -20 -102 -23 -230
-23 -138 0 -157 2 -235 28 -92 31 -230 95 -230 108 0 8 39 41 99 82 23 16 41
32 41 37 0 5 -59 11 -132 12 l-132 3 -41 119 c-22 66 -45 121 -50 123 -6 2
-18 -21 -27 -49z m52 -76 c0 -9 9 -42 20 -72 25 -68 25 -71 -2 -114 -40 -61
-48 -48 -48 77 0 63 3 117 7 120 12 12 23 7 23 -11z m-189 -193 c75 -25 119
-46 119 -58 0 -12 -67 -24 -83 -15 -70 39 -134 94 -108 94 4 0 37 -9 72 -21z
m389 -3 c-6 -9 -32 -28 -56 -43 -52 -33 -54 -47 -22 -139 22 -65 19 -94 -6
-58 -8 10 -42 55 -75 99 -34 44 -61 82 -61 85 0 7 224 80 229 75 2 -3 -2 -11
-9 -19z m-238 -93 c3 -45 -5 -70 -33 -95 -17 -15 -39 -30 -50 -33 -10 -4 -19
-10 -19 -15 0 -4 -9 -10 -20 -13 -11 -3 -20 -3 -20 -1 0 3 27 39 60 81 33 41
60 80 60 84 0 17 20 9 22 -8z m310 -58 c182 -87 229 -99 408 -99 131 -1 153 2
230 27 47 15 102 35 123 44 l38 16 47 -44 c48 -46 142 -122 245 -199 56 -41
71 -71 48 -96 -16 -16 -86 -157 -110 -219 -13 -33 -27 -69 -31 -80 -17 -40
-50 -192 -58 -263 -9 -79 1 -360 18 -482 14 -100 39 -354 47 -461 4 -67 1
-112 -17 -200 -30 -153 -64 -222 -165 -327 -92 -97 -170 -147 -300 -192 -91
-32 -115 -39 -280 -83 -81 -22 -202 -77 -310 -142 -42 -26 -152 -130 -193
-182 -13 -18 -30 -33 -37 -33 -7 0 -40 35 -74 78 -107 136 -251 226 -441 276
-253 66 -326 89 -416 132 -202 95 -326 257 -389 507 -21 83 -24 291 -7 392 7
39 17 97 23 130 6 33 14 78 19 100 28 127 35 214 33 395 -1 173 -4 206 -26
290 -33 126 -57 186 -123 303 -34 60 -53 104 -49 115 3 9 27 30 53 47 82 52
195 141 252 199 30 31 63 56 72 56 9 0 32 -9 50 -19 52 -31 184 -71 265 -81
135 -17 251 7 449 96 67 30 127 54 133 54 7 0 11 -10 9 -22 -2 -16 -19 -31
-58 -50 -91 -44 -202 -90 -255 -105 -73 -20 -270 -35 -314 -24 -20 6 -65 17
-101 26 -36 9 -87 25 -115 34 -47 17 -73 17 -85 1 -3 -3 -30 -26 -60 -49 -30
-24 -75 -61 -100 -82 -25 -21 -62 -53 -82 -70 -21 -17 -38 -36 -38 -43 0 -6
18 -47 40 -91 22 -44 40 -86 40 -93 0 -7 5 -21 10 -32 6 -11 15 -29 20 -40 6
-11 10 -31 10 -44 0 -14 4 -27 9 -30 5 -3 12 -20 15 -38 4 -18 11 -58 17 -88
23 -117 14 -360 -21 -580 -9 -61 -16 -97 -40 -225 -38 -201 -35 -355 10 -470
4 -11 14 -40 21 -65 7 -25 16 -49 21 -54 4 -6 8 -16 8 -24 0 -33 197 -239 253
-265 85 -39 146 -64 182 -75 98 -29 186 -52 254 -67 40 -9 89 -22 109 -30 19
-8 46 -15 61 -15 51 1 -43 37 -197 76 -230 57 -287 76 -389 128 -97 48 -273
252 -273 316 0 10 -4 21 -9 24 -5 3 -11 18 -14 33 -2 16 -12 55 -22 88 -18 66
-16 261 4 365 5 30 15 82 21 115 5 33 15 83 20 110 45 225 49 520 9 678 -21
86 -32 123 -39 142 -4 11 -13 36 -20 55 -16 46 -38 96 -61 143 -10 21 -19 43
-19 50 0 7 43 48 96 92 52 44 109 92 126 108 39 35 67 34 176 -4 71 -25 108
-32 203 -36 167 -8 237 7 414 87 94 42 125 53 132 46 4 -3 -2 -32 -13 -64 -26
-80 -27 -82 -15 -82 6 0 57 32 114 71 121 83 103 84 242 -20 44 -34 83 -61 88
-61 10 0 9 34 -1 45 -15 17 -35 92 -28 104 4 7 13 7 24 2 27 -14 115 -54 137
-62 11 -4 50 -19 87 -33 159 -61 398 -55 563 13 80 33 75 33 110 6 18 -13 39
-31 47 -38 28 -28 170 -137 178 -137 27 0 16 -46 -34 -146 -121 -241 -173
-499 -147 -733 7 -58 14 -117 17 -131 3 -14 9 -79 14 -145 10 -136 27 -303 36
-353 11 -55 23 -15 14 43 -5 28 -9 82 -10 120 0 39 -7 131 -16 205 -38 340
-38 540 0 675 10 33 22 78 28 100 11 41 24 77 39 107 5 10 9 23 9 29 0 6 8 23
19 37 10 15 21 39 25 54 3 15 12 33 19 40 27 27 47 66 42 79 -4 8 -20 23 -38
35 -87 56 -125 85 -130 98 -3 8 -33 37 -67 65 -60 50 -62 51 -90 36 -78 -41
-254 -74 -394 -74 -83 -1 -126 4 -180 20 -39 12 -75 24 -81 28 -5 4 -28 13
-50 20 -61 21 -168 72 -187 89 -15 13 -26 62 -14 62 2 0 64 -29 138 -65z"/>
<path d="M2102 2799 c-37 -3 -70 -13 -79 -22 -15 -15 -14 -17 13 -28 97 -42
131 -148 79 -250 -13 -28 -45 -75 -71 -106 -73 -91 -89 -133 -89 -238 0 -78 4
-97 27 -141 38 -71 101 -139 190 -201 106 -74 173 -149 192 -217 20 -67 20
-90 2 -160 -35 -133 -85 -193 -182 -222 -43 -12 -57 -22 -65 -42 -6 -15 -16
-34 -24 -42 -22 -25 -52 -85 -60 -118 -9 -41 11 -42 74 -5 67 40 134 63 234
81 80 15 93 15 145 1 31 -9 65 -19 75 -24 28 -12 20 14 -15 47 -18 16 -62 45
-99 64 -54 27 -69 39 -74 62 -10 49 9 80 57 92 53 13 128 49 128 63 0 5 -10 6
-22 2 -13 -3 -44 -9 -70 -12 -57 -7 -62 7 -24 64 22 32 24 43 19 104 -10 117
50 249 157 346 56 50 89 67 177 91 l68 19 3 44 c1 24 -1 71 -5 104 -8 59 -9
60 -40 63 -40 4 -41 11 -8 40 22 19 23 25 13 49 -7 16 -15 32 -19 37 -12 14
-76 -13 -130 -56 -59 -46 -101 -108 -125 -184 -23 -73 -42 -89 -88 -74 -43 14
-115 92 -146 157 -20 43 -22 59 -19 183 7 249 4 322 -15 357 -31 61 -86 82
-184 72z m126 -54 c42 -35 56 -96 48 -203 -15 -188 -21 -227 -33 -226 -7 1
-19 2 -27 3 -8 0 -28 13 -45 27 -26 21 -31 33 -31 67 0 23 7 64 15 91 8 27 15
68 15 92 0 23 8 55 17 72 20 35 12 59 -22 72 -15 6 -23 14 -20 20 11 18 53 11
83 -15z"/>
<path d="M3537 1153 c-9 -104 -22 -182 -43 -251 -15 -52 -31 -77 -86 -136 -36
-40 -103 -96 -147 -126 -45 -29 -80 -55 -77 -57 13 -13 205 117 254 172 72 82
108 190 119 363 6 105 -12 136 -20 35z"/>
<path d="M2011 1068 c-30 -27 -63 -100 -51 -112 12 -12 40 12 40 35 0 10 9 35
20 55 25 44 22 51 -9 22z"/>
<path d="M2272 1055 c-122 -34 -212 -95 -212 -144 0 -35 43 -58 248 -131 43
-16 57 -17 73 -7 10 6 19 15 19 18 0 4 15 14 33 22 30 14 38 14 102 -2 64 -17
72 -21 88 -55 9 -20 21 -36 26 -36 15 0 24 103 16 176 -5 53 -12 72 -38 101
-18 20 -47 42 -66 50 -51 21 -225 26 -289 8z"/>
<path d="M1992 948 c-15 -15 -16 -84 -1 -93 21 -13 50 27 47 64 -3 38 -24 51
-46 29z"/>
<path d="M1936 904 c-3 -9 -6 -27 -6 -41 0 -21 2 -24 15 -13 16 14 20 56 6 64
-5 3 -12 -1 -15 -10z"/>
<path d="M2032 848 c-37 -37 27 -195 116 -284 55 -55 135 -94 192 -94 68 0
190 62 236 119 l22 26 -77 1 c-101 0 -137 19 -153 79 -6 24 -19 46 -27 48 -66
21 -178 66 -255 103 -35 17 -39 17 -54 2z"/>
<path d="M1950 804 c-16 -41 -12 -72 16 -128 30 -60 92 -127 151 -161 76 -45
81 -29 12 38 -71 68 -129 172 -129 230 0 23 -17 47 -32 47 -5 0 -13 -12 -18
-26z"/>
<path d="M2433 789 c-17 -17 -17 -49 0 -49 7 0 19 6 25 12 10 10 14 10 21 0 4
-7 15 -10 23 -7 9 4 19 2 22 -4 4 -6 13 -8 20 -5 8 3 17 1 21 -5 3 -6 13 -11
21 -11 23 0 16 38 -10 55 -33 22 -127 31 -143 14z"/>
<path d="M2400 695 c0 -31 33 -53 92 -61 53 -7 88 7 88 38 0 15 -3 18 -13 10
-15 -13 -105 4 -128 24 -24 21 -39 17 -39 -11z"/>
<path d="M3130 573 c-8 -3 -28 -11 -45 -18 -16 -7 -43 -17 -58 -24 -15 -6 -38
-11 -49 -11 -12 0 -35 -4 -52 -9 -145 -44 -173 -51 -184 -51 -27 0 -218 -102
-242 -130 -3 -3 -18 -14 -33 -23 -16 -10 -57 -43 -92 -72 -41 -35 -70 -53 -80
-49 -8 3 -15 9 -15 13 -1 22 -138 144 -204 180 -65 37 -61 18 6 -26 70 -46
165 -133 193 -175 9 -16 23 -28 31 -28 7 0 39 25 71 56 53 50 84 74 221 167
47 32 151 73 222 88 25 5 65 15 90 23 171 53 222 71 238 82 17 14 9 17 -18 7z"/>
</g>
</svg>
