<?xml version="1.0" standalone="no"?>
<!DOCTYPE svg PUBLIC "-//W3C//DTD SVG 20010904//EN"
 "http://www.w3.org/TR/2001/REC-SVG-20010904/DTD/svg10.dtd">
<svg version="1.0" xmlns="http://www.w3.org/2000/svg"
 width="436.000000pt" height="414.000000pt" viewBox="0 0 436.000000 414.000000"
 preserveAspectRatio="xMidYMid meet">

<g transform="translate(0.000000,414.000000) scale(0.100000,-0.100000)"
fill="#000000" stroke="none">
<path d="M0 2070 l0 -2070 2180 0 2180 0 0 2070 0 2070 -2180 0 -2180 0 0
-2070z m2124 2006 c136 -67 166 -205 131 -611 -21 -247 -15 -327 36 -428 76
-153 209 -277 298 -277 39 0 51 19 95 142 47 135 81 193 157 269 49 49 88 77
150 107 129 62 125 62 154 0 36 -77 33 -90 -25 -126 -69 -43 -66 -56 13 -49
l64 6 13 -71 c14 -79 29 -296 22 -315 -2 -8 -23 -13 -51 -13 -159 0 -355 -109
-481 -268 -59 -75 -132 -220 -156 -312 -22 -87 -23 -195 -1 -238 l16 -34 -38
-56 c-44 -65 -71 -116 -71 -133 0 -8 24 -10 78 -8 62 3 90 10 140 35 76 38 81
23 13 -38 -49 -44 -83 -58 -206 -87 -68 -16 -95 -47 -95 -111 0 -81 13 -97
117 -145 105 -49 195 -116 248 -183 39 -50 39 -63 1 -38 -89 58 -252 85 -401
67 -165 -21 -303 -70 -441 -157 -74 -46 -88 -52 -105 -41 -24 15 -24 23 3 94
22 61 53 115 98 173 15 19 31 50 35 68 8 39 33 57 98 72 158 35 245 118 301
288 59 178 59 321 1 438 -45 93 -110 157 -302 301 -83 62 -181 145 -216 183
-143 155 -197 358 -147 554 24 96 58 156 162 288 92 118 121 170 137 250 35
167 -56 314 -212 343 -20 4 -37 11 -37 15 0 13 100 59 150 70 78 16 194 5 254
-24z m-287 -2888 c-34 -45 -73 -124 -87 -177 -6 -24 -23 -59 -38 -77 -21 -27
-28 -30 -44 -21 -10 7 -18 17 -18 23 0 31 77 159 131 217 63 70 98 91 56 35z
m808 -88 c95 -30 169 -79 195 -130 50 -98 63 -291 28 -410 -15 -50 -48 -69
-48 -28 -1 40 -37 106 -67 121 -37 19 -166 47 -215 47 -21 0 -52 -7 -67 -15
-28 -14 -75 -63 -83 -86 -7 -20 -260 70 -460 164 l-93 43 3 57 4 57 68 45
c112 75 251 130 390 154 89 16 264 6 345 -19z m-847 -172 c33 -33 -1 -163 -45
-174 -40 -10 -56 13 -51 76 6 87 56 138 96 98z m-140 -50 c19 -19 14 -88 -10
-145 -13 -29 -27 -53 -32 -53 -9 0 -2 116 10 178 7 35 13 39 32 20z m230 -137
c85 -43 171 -78 332 -137 l145 -52 5 -49 c12 -106 66 -143 241 -168 80 -12
160 38 183 113 7 21 36 32 36 13 0 -27 -63 -116 -129 -182 -81 -80 -153 -126
-250 -159 -222 -74 -479 70 -610 343 -40 83 -71 184 -71 231 0 23 34 72 53 75
4 1 33 -12 65 -28z m-158 -44 c0 -46 37 -161 81 -253 57 -121 159 -236 260
-297 l64 -39 -45 7 c-128 20 -276 121 -361 246 -44 66 -83 149 -93 200 -7 38
12 114 38 154 14 22 19 23 36 13 11 -7 20 -21 20 -31z m882 -42 c40 -9 88 -20
106 -26 35 -12 62 -52 62 -94 0 -22 -4 -25 -34 -25 -32 0 -35 3 -38 32 -4 43
-26 48 -34 8 -9 -44 -38 -37 -38 9 -1 43 -23 52 -32 14 -9 -39 -13 -43 -29
-36 -9 3 -15 18 -15 39 0 43 -26 46 -35 4 -6 -27 -10 -29 -33 -24 -62 15 -73
23 -63 42 14 27 46 52 77 62 16 4 30 9 31 9 1 1 35 -6 75 -14z m-126 -136 c17
-6 20 -14 17 -33 -4 -20 -1 -26 12 -26 9 0 19 9 22 20 3 12 14 20 25 20 16 0
19 -5 16 -25 -3 -14 1 -30 8 -36 11 -9 16 -5 26 17 7 16 13 30 14 32 0 1 8 0
16 -3 10 -4 13 -15 10 -31 -3 -18 0 -24 13 -24 9 0 19 9 22 20 4 15 14 20 39
20 39 0 40 -2 18 -40 -35 -59 -86 -71 -203 -46 -76 17 -111 41 -130 89 -24 64
-5 76 75 46z"/>
<path d="M1960 4038 c0 -23 22 -38 57 -38 26 0 36 -6 48 -30 24 -46 20 -95
-10 -118 -23 -19 -25 -26 -25 -113 0 -78 -5 -108 -30 -179 -33 -93 -38 -156
-16 -198 26 -50 82 -89 157 -110 l36 -9 17 186 c26 297 27 312 16 394 -12 94
-48 168 -97 198 -43 27 -153 39 -153 17z"/>
</g>
</svg>
